PathFileType	3	(X/Y/Z)	RCH0000002 BBF 13.c3d
DataRate	CameraRate	NumFrames	NumMarkers	Units	OrigDataRate	OrigDataStartFrame	OrigNumFrames
100.0	100.0	9	23	mm	100.0	370	457
Frame#	Time	T2			T10			MAN			LASI			RASI			LPSI			RPSI			LPAT			LKNE			LANK			LMED			LHEE			LTOE			RPAT			RKNE			RANK			RMED			RHEE			RTOE			RTHI			LTHI			RTIB			LTIB			
		X1	Y1	Z1	X2	Y2	Z2	X3	Y3	Z3	X4	Y4	Z4	X5	Y5	Z5	X6	Y6	Z6	X7	Y7	Z7	X8	Y8	Z8	X9	Y9	Z9	X10	Y10	Z10	X11	Y11	Z11	X12	Y12	Z12	X13	Y13	Z13	X14	Y14	Z14	X15	Y15	Z15	X16	Y16	Z16	X17	Y17	Z17	X18	Y18	Z18	X19	Y19	Z19	X20	Y20	Z20	X21	Y21	Z21	X22	Y22	Z22	X23	Y23	Z23	

370	3.690	1362.74851	-113.81994	970.32630	1391.80341	-120.57475	789.14096	1495.12750	-90.22571	957.44728	1460.55070	-35.61077	634.90617	1502.41783	-204.89133	660.11267	1368.13028	-105.68564	700.12902	1384.28275	-173.70245	711.42462	1462.97395	-75.87524	354.42610	1399.35238	-27.88531	328.64009	1213.14279	-31.15260	133.47398	1232.56099	-99.31196	138.47332	1204.44732	-75.69796	176.69860	1252.05350	-59.78314	97.07259	1511.50257	-148.30512	380.83537	1481.79041	-212.52250	346.21391	1411.50821	-243.78588	83.70516	1380.63265	-181.27469	96.51034	1361.15631	-229.70779	120.01901	1440.00509	-194.92130	71.95013	1510.39209	-278.91774	455.75019	1396.98834	38.99206	454.80956	1471.37690	-288.97524	236.51743	1315.49090	32.85309	251.72630	
371	3.700	1373.57611	-112.30618	974.50998	1402.26219	-120.53602	793.27686	1505.76126	-88.72560	961.27135	1472.74961	-37.12950	638.88958	1512.49475	-206.84541	664.43401	1379.55564	-105.85316	704.23649	1395.09601	-173.94132	715.69129	1484.06896	-75.94976	360.76443	1420.48258	-28.82001	333.19847	1237.96196	-34.03636	134.58249	1259.20109	-101.98045	138.99429	1229.21303	-79.64542	176.78188	1278.95464	-61.15577	99.14317	1512.10292	-152.02464	382.40491	1481.76587	-216.41813	348.74225	1412.44753	-243.81188	84.91932	1382.11907	-181.32218	98.17394	1362.02765	-229.73412	121.34393	1441.10149	-194.97118	72.66340	1514.46936	-282.01052	457.65812	1413.37022	38.02239	459.08531	1470.39627	-291.77121	237.65737	1336.49886	30.85808	255.66206	
372	3.710	1384.46929	-110.96653	978.47174	1412.50181	-120.56476	797.10480	1516.43941	-87.31192	964.69281	1484.82255	-38.49336	642.67226	1522.32706	-208.66291	668.35789	1390.76484	-105.83366	707.88243	1405.64589	-173.99986	719.44325	1505.36368	-76.00037	367.26846	1442.12006	-29.63708	337.75010	1263.99841	-36.57791	135.15566	1286.66722	-104.33648	139.29431	1254.87806	-83.01848	176.46584	1306.93757	-62.49777	100.91604	1512.70782	-155.50470	383.88311	1481.74672	-220.01430	351.17688	1413.44164	-243.77143	86.15294	1383.69674	-181.27873	99.80055	1362.98055	-229.61693	122.67454	1442.27713	-194.97879	73.35925	1518.32226	-284.84090	459.40729	1430.02456	37.25451	463.14527	1469.39074	-294.33822	238.85182	1358.60033	29.10753	259.10576	
373	3.720	1395.45847	-109.82633	982.09162	1422.54620	-120.60350	800.50791	1527.19647	-86.01147	967.59514	1496.79799	-39.71371	646.09466	1531.89969	-210.35201	671.81141	1401.75491	-105.57207	710.93180	1415.91094	-173.82644	722.58868	1526.77713	-76.13728	373.78918	1464.24985	-30.36514	342.17155	1291.23432	-38.64099	135.17927	1314.85200	-106.26754	139.35699	1281.39454	-85.65756	175.73440	1335.91700	-63.73032	102.35634	1513.49016	-158.81448	385.20476	1481.84515	-223.34632	353.45342	1414.49259	-243.72947	87.35965	1385.34975	-181.21054	101.37646	1364.03413	-229.44027	123.99593	1443.51920	-194.99893	74.01213	1521.96142	-287.46350	460.96816	1447.06616	36.67145	466.85880	1468.47845	-296.71334	240.03204	1381.86193	27.66308	261.97027	
374	3.730	1406.56657	-108.88856	985.26753	1432.41842	-120.59358	803.39184	1538.06098	-84.84065	969.88272	1508.70809	-40.81282	649.02277	1541.20288	-211.92888	674.74212	1412.53161	-105.03057	713.27723	1425.87901	-173.38407	725.05816	1548.20860	-76.46034	380.19141	1486.81582	-31.03709	346.36452	1319.63777	-40.12061	134.65044	1343.67719	-107.68716	139.14828	1308.71879	-87.46003	174.55595	1365.82264	-64.77122	103.43924	1514.58800	-161.99793	386.30921	1482.15471	-226.43837	355.51466	1415.58943	-243.73197	88.49483	1387.05530	-181.16572	102.88267	1365.19034	-229.26747	125.28852	1444.80790	-195.07041	74.59710	1525.40517	-289.92178	462.31648	1464.57642	36.24579	470.13669	1467.75268	-298.92251	241.13409	1406.28190	26.56502	264.21804	
375	3.740	1417.80825	-108.13464	987.91773	1442.14296	-120.47974	805.68668	1549.05461	-83.80498	971.48468	1520.58794	-41.81997	651.35343	1550.23767	-213.41308	677.11783	1423.11302	-104.19118	714.84325	1435.55305	-172.65280	726.80690	1569.53972	-77.05013	386.35329	1509.71801	-31.68808	350.25370	1349.15925	-40.95249	133.57497	1373.09078	-108.54229	138.61819	1336.80965	-88.38590	172.88476	1396.59323	-65.54506	104.14884	1516.09827	-165.06700	387.14415	1482.74813	-229.29783	357.31271	1416.70318	-243.79943	89.52081	1388.78170	-181.16682	104.29751	1366.42964	-229.13049	126.53199	1446.11332	-195.21150	75.09279	1528.68422	-292.24075	463.43068	1482.58931	35.94036	472.92938	1467.27277	-300.97521	242.10368	1431.78597	25.82654	265.85327	
376	3.750	1429.18997	-107.52708	989.98181	1451.74817	-120.21392	807.34716	1560.19189	-82.89938	972.35718	1532.47463	-42.76702	653.01687	1559.02033	-214.82321	678.92544	1433.53210	-103.05598	715.58835	1444.95528	-171.63013	727.81565	1590.63926	-77.96273	392.16382	1532.81578	-32.35368	353.78144	1379.72705	-41.11846	131.96536	1403.05726	-108.81770	137.70640	1365.62298	-88.45662	170.66683	1428.16618	-65.99378	104.47671	1518.07651	-168.00243	387.66908	1483.67777	-231.91472	358.81126	1417.78686	-243.92540	90.41118	1390.48917	-181.20861	105.60025	1367.71180	-229.02615	127.70943	1447.39559	-195.41915	75.48407	1531.84484	-294.42447	464.29074	1501.08435	35.70985	475.21956	1467.06110	-302.86341	242.90004	1458.23116	25.43184	266.90934	
377	3.760	1440.71054	-107.01361	991.42059	1461.26850	-119.75823	808.35141	1571.48055	-82.10905	972.48415	1544.40643	-43.68415	653.97653	1567.58527	-216.17326	680.16884	1443.83760	-101.64514	715.50462	1454.12934	-170.32977	728.09009	1611.37061	-79.22817	397.51956	1555.93651	-33.06809	356.90052	1411.24128	-40.64745	129.83969	1433.54205	-108.53736	136.35085	1395.10212	-87.74805	167.84913	1460.46400	-66.08618	104.42047	1520.54254	-170.76104	387.85754	1484.97865	-234.26569	359.98729	1418.78080	-244.08037	91.15362	1392.13351	-181.26170	106.77497	1368.98189	-228.91985	128.81096	1448.60841	-195.67202	75.76397	1534.94998	-296.45845	464.87843	1519.98770	35.50329	477.01113	1467.10697	-304.56478	243.49831	1485.41658	25.33809	267.43433	
378	3.770	1452.36232	-106.53221	992.21496	1470.74623	-119.08682	808.69859	1582.92223	-81.41084	971.87648	1556.42189	-44.59624	654.22667	1575.98592	-217.47033	680.86614	1454.09312	-99.99336	714.61535	1463.14006	-168.77895	727.65866	1631.60110	-80.85204	402.32182	1578.88859	-33.86264	359.56712	1443.56624	-39.61242	127.22154	1464.49189	-107.76257	134.49765	1425.16519	-86.37919	164.39071	1493.37891	-65.82483	103.98231	1523.49098	-173.28732	387.69748	1486.67388	-236.32110	360.83163	1419.62266	-244.21998	91.75071	1393.67235	-181.28089	107.81376	1370.18074	-228.75597	129.83629	1449.70565	-195.93667	75.93415	1538.07836	-298.31568	465.17876	1539.18073	35.26762	478.31706	1467.37687	-306.04902	243.89031	1513.09889	25.48037	267.47732	
